PLOT:

The treacherous Alaskan ice road becomes the setting for a deadly pursuit inthis suspenseful thriller. Two truckers are preparing to traverse a dangerous path across frozen rivers to deliver equipment to a remote diamond mine. Unbeknownst to them, blasting at the mine has awakened a long-dormant prehistoric creature. Upon arrival at the mine they encounter unbelievable carnage, leaving them stranded in the wilderness with a hungry beast on their trail. Can they escape the terror of the ice road?

TECH SPECS:

Source                           : JOBIWAN (Thanks)
Format                           : AVI
Format/Info                      : Audio Video Interleave
File size                        : 765 MiB
Duration                         : 1h 25mn
Overall bit rate                 : 1 244 Kbps
Writing application              : VirtualDubMod 1.5.10.2 (build 2542/release)
Writing library                  : VirtualDubMod build 2542/release

Video
ID                               : 0
Format                           : MPEG-4 Visual
Format profile                   : Advanced Simple@L5
Format settings, BVOP            : 1
Format settings, QPel            : No
Format settings, GMC             : No warppoints
Format settings, Matrix          : Default (H.263)
Muxing mode                      : Packed bitstream
Codec ID                         : XVID
Codec ID/Hint                    : XviD
Duration                         : 1h 25mn
Bit rate                         : 979 Kbps
Width                            : 640 pixels
Height                           : 360 pixels
Display aspect ratio             : 16:9
Frame rate                       : 29.970 fps
Color space                      : YUV
Chroma subsampling               : 4:2:0
Bit depth                        : 8 bits
Scan type                        : Progressive
Compression mode                 : Lossy
Bits/(Pixel*Frame)               : 0.142
Stream size                      : 602 MiB (79%)
Writing library                  : XviD 62

Audio
ID                               : 1
Format                           : AC-3
Format/Info                      : Audio Coding 3
Mode extension                   : CM (complete main)
Codec ID                         : 2000
Duration                         : 1h 25mn
Bit rate mode                    : Constant
Bit rate                         : 256 Kbps
Channel(s)                       : 2 channels
Channel positions                : Front: L R
Sampling rate                    : 48.0 KHz
Bit depth                        : 16 bits
Compression mode                 : Lossy
Stream size                      : 157 MiB (21%)
Alignment                        : Split accross interleaves
Interleave, duration             : 64 ms (1.92 video frames)
Interleave, preload duration     : 500 ms

SCREENS:
 
http://imghunt.org/images/01408857725352376881.png 
http://imghunt.org/images/49906042452766444862.png 
http://imghunt.org/images/38938648799542779065.png

SEED AND ENJOY!!!